<svg width="12" height="12" viewBox="0 0 12 12" fill="none" xmlns="http://www.w3.org/2000/svg">
<path d="M4.09113 6.94654C3.53581 6.94654 3.09351 6.49387 3.09351 5.94892C3.09351 5.40364 3.54617 4.95129 4.09113 4.95129C4.3997 4.95129 4.67753 5.08503 4.87278 5.32172C4.94467 5.41432 4.93463 5.53769 4.84202 5.60989C4.74942 5.68178 4.62604 5.67173 4.55385 5.57913C4.44084 5.43504 4.27603 5.36315 4.09082 5.36315C3.76152 5.36315 3.50442 5.63061 3.50442 5.94955C3.50442 6.27885 3.77188 6.53595 4.09082 6.53595C4.24527 6.53595 4.3994 6.47411 4.50237 6.3611C4.58461 6.27885 4.70798 6.27885 4.79054 6.3611C4.87278 6.44334 4.87278 6.56671 4.79054 6.64927C4.61569 6.84358 4.35859 6.94655 4.09114 6.94655L4.09113 6.94654Z" fill="#32727A"/>
<path d="M6.0352 6.9465C5.50029 6.9465 5.06836 6.51455 5.06836 5.97966C5.06836 5.44477 5.50031 5.01282 6.0352 5.01282C6.5701 5.01282 7.00205 5.44477 7.00205 5.97966C7.00205 6.51426 6.5701 6.9465 6.0352 6.9465ZM6.0352 5.42403C5.72663 5.42403 5.47988 5.67077 5.47988 5.97936C5.47988 6.28793 5.72662 6.53468 6.0352 6.53468C6.34379 6.53468 6.59052 6.28794 6.59052 5.97936C6.59052 5.67078 6.34379 5.42403 6.0352 5.42403Z" fill="#32727A"/>
<path d="M8.52457 6.94655H7.41363C7.30063 6.94655 7.20802 6.85395 7.20802 6.74094C7.20802 6.37051 7.57844 6.15454 7.89706 5.96933C8.07191 5.86636 8.33937 5.71223 8.33937 5.61962C8.33937 5.46517 8.11304 5.414 7.9793 5.414C7.85593 5.414 7.61924 5.45513 7.61924 5.62998C7.61924 5.74298 7.52664 5.83559 7.41362 5.83559C7.30061 5.83559 7.20801 5.74299 7.20801 5.62998C7.21837 5.26991 7.53731 5.01282 7.98966 5.01282C8.43197 5.01282 8.76127 5.28027 8.76127 5.62998C8.76127 5.96933 8.43197 6.15453 8.11335 6.33974C8.00034 6.40158 7.87666 6.47347 7.78405 6.54536H8.53494C8.64795 6.54536 8.74056 6.63796 8.74056 6.75097C8.7302 6.85393 8.6376 6.94654 8.52458 6.94654L8.52457 6.94655Z" fill="#32727A"/>
<path d="M10.7977 8.32498C10.8388 8.2016 10.8595 8.06788 10.8595 7.93415V4.06638C10.8595 3.61371 10.6128 3.20216 10.2216 2.98622L6.62129 1.01139C6.25087 0.805774 5.80859 0.805774 5.43844 1.01139L1.83811 2.98622C1.43692 3.2022 1.19019 3.61374 1.19019 4.06638V7.93415C1.19019 8.38682 1.43692 8.79837 1.82806 9.0143L5.42839 10.9891C5.6136 11.0921 5.81922 11.1436 6.02515 11.1436C6.23076 11.1436 6.43669 11.0921 6.62191 10.9891L7.90771 10.2794C8.21628 10.7936 8.77193 11.1436 9.40953 11.1436C10.3764 11.1436 11.1584 10.3619 11.1584 9.39474C11.1681 8.99324 11.024 8.62316 10.7977 8.32498ZM6.42609 10.6291C6.17935 10.7629 5.88082 10.7629 5.63408 10.6291L2.03375 8.6543C1.76629 8.51021 1.61216 8.23271 1.61216 7.93418V4.06641C1.61216 3.76819 1.77665 3.49037 2.03375 3.34629L5.62371 1.37113C5.74708 1.29925 5.88081 1.26817 6.0249 1.26817C6.16899 1.26817 6.29235 1.29894 6.41572 1.37113L10.0161 3.34596C10.2835 3.49006 10.448 3.76756 10.448 4.06609V7.93386V7.98534C10.1598 7.76937 9.80008 7.64599 9.41928 7.64599C8.45244 7.64599 7.67043 8.42765 7.67043 9.39485C7.67043 9.5697 7.70119 9.74455 7.74231 9.89899L6.42609 10.6291Z" fill="#32727A" stroke="#32727A" stroke-width="0.5"/>
</svg>
