<?xml version="1.0" encoding="UTF-8"?>
<svg xmlns="http://www.w3.org/2000/svg" xmlns:xlink="http://www.w3.org/1999/xlink" width="12" height="12" viewBox="0 0 12 12" version="1.1">
<defs>
<clipPath id="clip1">
  <path d="M 3.648438 1.03125 L 10.335938 1.03125 L 10.335938 7.273438 L 3.648438 7.273438 Z M 3.648438 1.03125 "/>
</clipPath>
</defs>
<g id="surface1">
<path style=" stroke:none;fill-rule:nonzero;fill:rgb(19.607843%,44.705882%,47.843137%);fill-opacity:1;" d="M 8.230469 7.773438 C 8.285156 7.890625 8.316406 8.015625 8.324219 8.152344 C 8.339844 8.367188 8.289062 8.585938 8.191406 8.773438 C 8.984375 8.515625 9.761719 8.140625 10.523438 7.769531 C 10.628906 7.71875 10.746094 7.660156 10.878906 7.613281 C 10.914062 7.523438 10.925781 7.433594 10.894531 7.34375 C 10.839844 7.175781 10.652344 7.082031 10.476562 7.074219 C 10.296875 7.066406 10.128906 7.128906 9.960938 7.191406 C 9.394531 7.40625 8.816406 7.621094 8.230469 7.773438 "/>
<path style=" stroke:none;fill-rule:nonzero;fill:rgb(19.607843%,44.705882%,47.843137%);fill-opacity:1;" d="M 11.882812 8.25 C 11.792969 8.050781 11.554688 7.953125 11.335938 7.964844 C 11.117188 7.976562 10.914062 8.074219 10.71875 8.167969 C 9.414062 8.804688 8.070312 9.457031 6.621094 9.535156 C 6.210938 9.558594 5.722656 9.492188 5.523438 9.132812 C 5.886719 9.058594 6.261719 9.101562 6.632812 9.097656 C 7 9.089844 7.394531 9.015625 7.660156 8.757812 C 7.925781 8.5 7.976562 8.007812 7.6875 7.777344 C 7.480469 7.617188 7.195312 7.636719 6.933594 7.65625 C 6.671875 7.679688 6.40625 7.699219 6.144531 7.660156 C 5.859375 7.621094 5.585938 7.519531 5.304688 7.4375 C 4.367188 7.167969 3.375 7.152344 2.398438 7.1875 L 2.398438 6.988281 C 2.398438 6.671875 2.140625 6.414062 1.824219 6.414062 L 0.605469 6.414062 C 0.289062 6.414062 0.03125 6.671875 0.03125 6.988281 L 0.03125 10.230469 C 0.03125 10.546875 0.289062 10.800781 0.605469 10.800781 L 1.824219 10.800781 C 2.140625 10.800781 2.398438 10.546875 2.398438 10.230469 L 2.398438 10.042969 C 3.972656 10.867188 5.796875 11.347656 7.535156 10.972656 C 8.527344 10.757812 9.445312 10.273438 10.324219 9.761719 C 10.65625 9.566406 10.984375 9.367188 11.316406 9.167969 C 11.484375 9.066406 11.660156 8.960938 11.78125 8.804688 C 11.902344 8.648438 11.964844 8.429688 11.882812 8.25 "/>
<g clip-path="url(#clip1)" clip-rule="nonzero">
<path style=" stroke:none;fill-rule:nonzero;fill:rgb(19.607843%,44.705882%,47.843137%);fill-opacity:1;" d="M 6.921875 4.546875 C 6.539062 4.386719 6.183594 4.175781 6.183594 3.695312 C 6.183594 3.304688 6.429688 3 6.8125 2.90625 L 6.8125 2.441406 L 7.242188 2.441406 L 7.242188 2.878906 C 7.429688 2.894531 7.589844 2.949219 7.738281 3.039062 L 7.800781 3.078125 L 7.636719 3.546875 L 7.546875 3.492188 C 7.480469 3.453125 7.320312 3.355469 7.066406 3.355469 C 6.808594 3.355469 6.714844 3.503906 6.714844 3.640625 C 6.714844 3.808594 6.816406 3.90625 7.175781 4.0625 C 7.664062 4.277344 7.871094 4.542969 7.871094 4.960938 C 7.871094 5.363281 7.609375 5.691406 7.214844 5.789062 L 7.214844 6.265625 L 6.78125 6.265625 L 6.78125 5.816406 C 6.554688 5.796875 6.328125 5.71875 6.183594 5.605469 L 6.132812 5.566406 L 6.289062 5.09375 L 6.382812 5.160156 C 6.539062 5.269531 6.738281 5.332031 6.929688 5.332031 C 7.175781 5.332031 7.335938 5.195312 7.335938 4.992188 C 7.335938 4.804688 7.21875 4.675781 6.921875 4.546875 Z M 5.464844 6.894531 C 5.542969 6.917969 5.617188 6.941406 5.691406 6.964844 C 5.878906 7.023438 6.058594 7.078125 6.222656 7.101562 C 6.425781 7.128906 6.652344 7.113281 6.886719 7.09375 C 7.148438 7.074219 7.574219 7.039062 7.9375 7.265625 L 8.089844 7.226562 C 8.441406 7.136719 8.796875 7.019531 9.15625 6.890625 C 9.875 6.277344 10.332031 5.367188 10.332031 4.355469 C 10.332031 2.519531 8.835938 1.027344 7 1.027344 C 5.164062 1.027344 3.671875 2.519531 3.671875 4.355469 C 3.671875 5.277344 4.050781 6.117188 4.660156 6.71875 C 4.929688 6.761719 5.199219 6.820312 5.464844 6.894531 "/>
</g>
</g>
</svg>
