<svg width="12" height="12" viewBox="0 0 12 12" fill="none" xmlns="http://www.w3.org/2000/svg">
<path d="M11.5199 9.8878L9.55194 7.75171C9.43182 7.61988 9.23993 7.53564 9.06012 7.53564H7.27193C7.09175 7.53564 6.94783 7.67957 6.94783 7.85974C6.94783 8.03991 7.09176 8.18383 7.27193 8.18383H9.08393L11.0519 10.3437C11.0519 10.3558 11.0398 10.3558 11.0398 10.3558H0.97203L0.959944 10.3317L2.94004 8.18384H4.72785C4.90803 8.18384 5.05194 8.03992 5.05194 7.85975C5.05194 7.67958 4.90802 7.53565 4.72785 7.53565H2.94004C2.74814 7.53565 2.56796 7.61952 2.44822 7.75172L0.480216 9.88781C0.288319 10.0918 0.252066 10.3917 0.384272 10.6558C0.504385 10.8839 0.756348 11.0157 1.00829 11.0157H10.9927C11.2446 11.0157 11.4966 10.8839 11.6167 10.6558C11.7606 10.4038 11.7126 10.1039 11.5204 9.88781L11.5199 9.8878Z" fill="#32727A"/>
<path d="M4.34398 4.27177C4.21215 4.45195 4.12792 4.67974 4.12792 4.91961C4.12792 5.54362 4.63182 6.04751 5.25582 6.04751C5.36385 6.04751 5.47189 6.02334 5.56783 5.99954V8.78344C5.56783 9.02331 5.75973 9.21558 5.99996 9.21558C6.23983 9.21558 6.43209 9.02368 6.43209 8.78344V6.01201C6.52804 6.03618 6.63608 6.05998 6.7441 6.05998C7.36812 6.05998 7.87201 5.55607 7.87201 4.93207C7.87201 4.69221 7.78815 4.46406 7.65594 4.28424C7.88409 4.05609 8.02802 3.75617 8.02802 3.40826C8.02802 2.94024 7.76398 2.54437 7.38019 2.34036C7.35602 1.58376 6.74407 0.983887 5.99991 0.983887C5.25574 0.983887 4.64381 1.58374 4.62 2.32789C4.23584 2.53187 3.97217 2.93982 3.97217 3.39579C3.9718 3.74406 4.11572 4.04399 4.34387 4.27177H4.34398Z" fill="#32727A"/>
</svg>
