<svg width="12" height="12" viewBox="0 0 12 12" fill="none" xmlns="http://www.w3.org/2000/svg">
<path d="M11.6155 11.25H9.22491V9.69138C9.45928 9.78293 9.70757 9.82981 9.96319 9.82981C11.086 9.82981 12.0001 8.91575 12.0001 7.7929C12.0001 7.3454 11.8573 6.91876 11.5877 6.56243C11.3981 6.31158 11.1494 6.1076 10.8707 5.96697C10.8824 5.87798 10.8872 5.789 10.8872 5.69963C10.8872 4.57679 9.97313 3.66273 8.85028 3.66273C7.72744 3.66273 6.81338 4.57679 6.81338 5.69963C6.81338 5.78862 6.81814 5.87761 6.82986 5.96697C6.71486 6.02337 6.60501 6.09368 6.50173 6.17095C6.84634 6.64446 7.02688 7.2022 7.02688 7.7903C7.02688 8.39491 6.83243 8.95523 6.50173 9.40964C6.84377 9.67221 7.27297 9.82675 7.73436 9.82675C7.98997 9.82675 8.24046 9.77988 8.47264 9.68832V11.2498H6.37498V10.2234C6.26256 10.16 6.15233 10.0875 6.04686 10.0077L5.97874 9.95602C5.86632 10.045 5.74913 10.1248 5.62498 10.1952V11.2498H3.52517V9.69125C3.75955 9.7828 4.00783 9.82968 4.26345 9.82968C5.3863 9.82968 6.30036 8.91562 6.30036 7.79277C6.30036 7.34527 6.15754 6.91863 5.88801 6.5623C5.69832 6.31145 5.44965 6.10747 5.17097 5.96684C5.18269 5.87785 5.18745 5.78887 5.18745 5.6995C5.18745 4.57666 4.27339 3.6626 3.15055 3.6626C2.0277 3.6626 1.11364 4.57666 1.11364 5.6995C1.11364 5.78849 1.1184 5.87748 1.13012 5.96684C0.851062 6.10747 0.602775 6.31145 0.413081 6.5623C0.142819 6.91863 0 7.3427 0 7.79277C0 8.91562 0.914063 9.82968 2.03691 9.82968C2.29253 9.82968 2.54301 9.7828 2.77519 9.69125V11.2498H0.384563C0.178388 11.2498 0.0095625 11.4187 0.0095625 11.6248C0.0095625 11.831 0.178388 11.9998 0.384563 11.9998H11.6177C11.8239 11.9998 11.9927 11.831 11.9927 11.6248C11.9927 11.4187 11.8239 11.2498 11.6151 11.2498L11.6155 11.25Z" fill="#32727A"/>
<path d="M5.91089 5.57336C5.93433 5.58984 5.95777 5.60851 5.97901 5.62719L6.04712 5.57556C6.05188 5.5708 6.05884 5.56603 6.0636 5.56384C6.13172 4.17146 7.22854 3.04431 8.60873 2.92712C8.54061 2.8872 8.47287 2.85205 8.40255 2.81946C8.42379 2.69274 8.43295 2.56641 8.43295 2.4375C8.43258 1.092 7.34057 0 5.99986 0C4.65914 0 3.56714 1.092 3.56714 2.43272C3.56714 2.56162 3.57666 2.68834 3.59753 2.81467C3.5155 2.85203 3.43566 2.89671 3.3562 2.94358C4.74379 3.04686 5.84751 4.17658 5.91089 5.57336L5.91089 5.57336Z" fill="#32727A"/>
</svg>
